<?xml version="1.0" encoding="UTF-8"?>
<svg xmlns="http://www.w3.org/2000/svg" viewBox="0 0 64 64" width="512" height="512"><g id="digital_coin-coin-circuit-network-currency" data-name="digital coin-coin-circuit-network-currency"><path d="M32,18A14,14,0,1,0,46,32,14.015,14.015,0,0,0,32,18ZM30,31h4a4,4,0,0,1,4,4v1a4,4,0,0,1-4,4H33v2H31V40H30a4,4,0,0,1-4-4h2a2.006,2.006,0,0,0,2,2h4a2.006,2.006,0,0,0,2-2V35a2.006,2.006,0,0,0-2-2H30a4,4,0,0,1-4-4V28a4,4,0,0,1,4-4h1V22h2v2h1a4,4,0,0,1,4,4H36a2.006,2.006,0,0,0-2-2H30a2.006,2.006,0,0,0-2,2v1A2.006,2.006,0,0,0,30,31Z"/><path d="M5,8a2.964,2.964,0,0,0,1.281-.3L19.29,20.71a19.024,19.024,0,0,1,1.42-1.42L7.7,6.281A2.964,2.964,0,0,0,8,5,3,3,0,1,0,5,8Z"/><path d="M18,8a3,3,0,0,0,2.816-2H28v9.47a18.552,18.552,0,0,1,2-.35V5a1,1,0,0,0-1-1H20.816A2.995,2.995,0,1,0,18,8Z"/><path d="M15,32c0,.33.01.67.03,1H7.82a3,3,0,1,1,0-2h7.21C15.01,31.33,15,31.67,15,32Z"/><path d="M43.29,19.29a19.024,19.024,0,0,1,1.42,1.42L57.719,7.7A2.964,2.964,0,0,0,59,8a3,3,0,1,0-3-3,2.964,2.964,0,0,0,.3,1.281Z"/><path d="M12,26V23.816a3,3,0,1,0-2,0V27a1,1,0,0,0,1,1h4.47a17.15,17.15,0,0,1,.62-2Z"/><path d="M16.09,38a17.15,17.15,0,0,1-.62-2H11a1,1,0,0,0-1,1v4.184a3,3,0,1,0,2,0V38Z"/><path d="M59,29a3,3,0,0,0-2.816,2H48.97c.02.33.03.67.03,1s-.01.67-.03,1h7.214A2.995,2.995,0,1,0,59,29Z"/><path d="M54,27V23.816a3,3,0,1,0-2,0V26H47.91a17.15,17.15,0,0,1,.62,2H53A1,1,0,0,0,54,27Z"/><path d="M53,36H48.53a17.15,17.15,0,0,1-.62,2H52v3.184a3,3,0,1,0,2,0V37A1,1,0,0,0,53,36Z"/><path d="M59,56a2.964,2.964,0,0,0-1.281.3L44.71,43.29a19.024,19.024,0,0,1-1.42,1.42L56.3,57.719A2.964,2.964,0,0,0,56,59a3,3,0,1,0,3-3Z"/><path d="M20.71,44.71a19.024,19.024,0,0,1-1.42-1.42L6.281,56.3A2.964,2.964,0,0,0,5,56a3,3,0,1,0,3,3,2.964,2.964,0,0,0-.3-1.281Z"/><path d="M36,6h7.184a3,3,0,1,0,0-2H35a1,1,0,0,0-1,1V15.12a18.552,18.552,0,0,1,2,.35Z"/><path d="M28,58H20.816a3,3,0,1,0,0,2H29a1,1,0,0,0,1-1V48.88a18.552,18.552,0,0,1-2-.35Z"/><path d="M46,56a3,3,0,0,0-2.816,2H36V48.53a18.552,18.552,0,0,1-2,.35V59a1,1,0,0,0,1,1h8.184A2.995,2.995,0,1,0,46,56Z"/></g></svg>
